<?xml version="1.0" standalone="no"?>
<!DOCTYPE svg PUBLIC "-//W3C//DTD SVG 1.1//EN"
  "http://www.w3.org/Graphics/SVG/1.1/DTD/svg11.dtd">
<svg width="153mm" height="259.99999999999994mm" viewBox="-76.5 -161.99999999999997 153 259.99999999999994" xmlns="http://www.w3.org/2000/svg" version="1.1">
	<title>svgOutput</title>
	<desc>made with tinkercad</desc>
<path d="M 75 -140.99999999999997 L 48 -140.99999999999997 L 45 -140.99999999999997 L 36.5 -140.99999999999997 L 24 -140.99999999999997 L 24 -95.99999999999997 L 24 -95.96019744873045 L 24 -95.93256378173827 L 24 -95.9276657104492 L 24.354999542236328 -95.88300323486327 L 24.388999938964844 -95.87999725341795 L 24.426000595092773 -95.87499999999999 L 24.43600082397461 -95.8730010986328 L 24.437986373901367 -95.87255859374999 L 24.47694969177246 -95.86389923095702 L 24.499000549316406 -95.85900115966795 L 24.575000762939453 -95.83799743652342 L 24.576000213623047 -95.83773803710936 L 24.78700065612793 -95.78199768066405 L 24.86199951171875 -95.75499725341795 L 24.888999938964844 -95.74500274658202 L 25.01300048828125 -95.70500183105467 L 25.08300018310547 -95.68099975585936 L 25.152999877929688 -95.65499877929686 L 25.210058212280273 -95.63184356689452 L 25.222000122070312 -95.62699890136717 L 25.229999542236328 -95.62400054931639 L 25.291000366210938 -95.59999847412108 L 25.319265365600586 -95.58753204345702 L 25.345922470092773 -95.57576751708983 L 25.427000045776367 -95.54000091552733 L 25.429000854492188 -95.53900146484374 L 25.464000701904297 -95.52200317382811 L 25.597999572753906 -95.45600128173827 L 25.599000930786133 -95.45600128173827 L 25.600000381469727 -95.45547485351561 L 25.663999557495117 -95.42199707031249 L 25.683000564575195 -95.41200256347655 L 25.749000549316406 -95.37599945068358 L 25.823999404907227 -95.33399963378905 L 25.89900016784668 -95.29000091552733 L 25.974000930786133 -95.24400329589842 L 26.047000885009766 -95.19799804687499 L 26.1200008392334 -95.15000152587889 L 26.19099998474121 -95.10099792480467 L 26.261999130249023 -95.05100250244139 L 26.332000732421875 -94.99900054931639 L 26.62299919128418 -94.78099822998045 L 26.624000549316406 -94.78025054931639 L 27.386999130249023 -94.20800018310545 L 28.672000885009766 -93.24424743652342 L 32.766998291015625 -90.17299652099608 L 32.768001556396484 -90.17224884033202 L 32.848297119140625 -90.11199951171874 L 33.51599884033203 -89.61100006103514 L 34.814998626708984 -88.63700103759764 L 34.88199996948242 -88.58699798583983 L 34.983795166015625 -88.51043701171874 L 34.999000549316406 -88.49900054931639 L 35.06700134277344 -88.44699859619139 L 35.1349983215332 -88.3939971923828 L 35.20100021362305 -88.33899688720702 L 35.26599884033203 -88.28399658203124 L 35.33100128173828 -88.22699737548827 L 35.39400100708008 -88.1689987182617 L 35.457000732421875 -88.11000061035155 L 35.50453186035156 -88.06400299072264 L 35.51900100708008 -88.0500030517578 L 35.57899856567383 -87.98999786376952 L 35.63800048828125 -87.92800140380858 L 35.696998596191406 -87.86499786376952 L 35.75400161743164 -87.80100250244139 L 35.810001373291016 -87.73600006103514 L 35.84000015258789 -87.69999694824217 L 35.8650016784668 -87.6699981689453 L 35.901947021484375 -87.62416076660155 L 35.91899871826172 -87.60299682617186 L 35.95000076293945 -87.56300354003905 L 35.97200012207031 -87.53500366210936 L 36.07400131225586 -87.39700317382811 L 36.12300109863281 -87.32599639892577 L 36.17100143432617 -87.25499725341795 L 36.21699905395508 -87.18299865722655 L 36.26300048828125 -87.11000061035155 L 36.30519104003906 -87.04000091552733 L 36.30699920654297 -87.03700256347655 L 36.349998474121094 -86.96199798583983 L 36.391998291015625 -86.88700103759764 L 36.43199920654297 -86.81199645996092 L 36.47100067138672 -86.73500061035155 L 36.5 -86.67623901367186 L 36.50899887084961 -86.65799713134764 L 36.54499816894531 -86.58000183105467 L 36.56399917602539 -86.53900146484374 L 36.56514358520508 -86.53635406494139 L 36.568756103515625 -86.52799987792967 L 36.58000183105469 -86.50199890136717 L 36.61399841308594 -86.42299652099608 L 36.645999908447266 -86.34300231933592 L 36.6510009765625 -86.33200073242186 L 36.66163635253906 -86.3039093017578 L 36.68394088745117 -86.24500274658202 L 36.689998626708984 -86.22899627685545 L 36.694000244140625 -86.21700286865233 L 36.73099899291992 -86.11399841308592 L 36.73899841308594 -86.08999633789061 L 36.76138687133789 -86.01599884033202 L 36.81100082397461 -85.85199737548827 L 36.814998626708984 -85.83999633789061 L 36.816001892089844 -85.83699798583983 L 36.82400131225586 -85.80500030517577 L 36.862998962402344 -85.6439971923828 L 36.86399841308594 -85.63991546630858 L 36.887001037597656 -85.54599761962889 L 36.88999938964844 -85.53399658203124 L 36.891998291015625 -85.52200317382811 L 36.89400100708008 -85.51499938964842 L 36.89500045776367 -85.51000213623045 L 36.9010009765625 -85.47399902343749 L 36.902000427246094 -85.46199798583983 L 36.90399932861328 -85.44899749755858 L 36.93899917602539 -83.46700286865233 L 36.96619415283203 -81.9199981689453 L 36.974998474121094 -81.4189987182617 L 36.987998962402344 -80.65799713134764 L 36.99332046508789 -80.37686157226561 L 36.994998931884766 -80.28800201416014 L 36.994998931884766 -80.28121948242186 L 36.994998931884766 -80.24999999999999 L 36.99561309814453 -80.24631500244139 L 36.995811462402344 -80.24513244628905 L 36.99700164794922 -80.23799896240233 L 36.99700164794922 -80.22599792480467 L 36.99800109863281 -80.21299743652342 L 36.999000549316406 -80.20099639892577 L 36.999000549316406 -80.19999694824217 L 36.999000549316406 -80.17700195312499 L 36.99884033203125 -80.08497619628905 L 36.99880599975586 -80.06469726562499 L 36.99874496459961 -80.02903747558592 L 36.99847412109375 -79.8720016479492 L 36.99800109863281 -79.59799957275389 L 36.99800109863281 -79.42900085449217 L 36.99769592285156 -79.42087554931639 L 36.98960494995117 -79.20605468749999 L 36.98899841308594 -79.19000244140624 L 36.97100067138672 -78.98899841308592 L 36.96500015258789 -78.9189987182617 L 36.95100021362305 -78.80999755859374 L 36.928001403808594 -78.66500091552733 L 36.86399841308594 -78.46315765380858 L 36.66134262084961 -77.82399749755858 L 36.59000015258789 -77.59899902343749 L 36.57600021362305 -77.52700042724608 L 36.54199981689453 -77.42700195312499 L 36.5 -77.34300231933592 L 36.4900016784668 -77.32299804687499 L 36.36000061035156 -77.06600189208983 L 36.29899978637695 -76.94999694824217 L 36.00199890136719 -76.50700378417967 L 35.97200012207031 -76.46299743652342 L 35.22600173950195 -75.70500183105467 L 35.09400177001953 -75.57299804687499 L 33.93899917602539 -74.70600128173827 L 32.768001556396484 -73.82775115966795 L 32.766998291015625 -73.82700347900389 L 32.63533020019531 -73.72799682617186 L 31.9689998626709 -73.22699737548827 L 28.67099952697754 -70.75199890136717 L 27.178794860839844 -69.63200378417967 L 26.927228927612305 -69.44318389892577 L 26.906999588012695 -69.42800140380858 L 26.89299964904785 -69.41699981689452 L 26.80699920654297 -69.3470001220703 L 26.797000885009766 -69.33899688720702 L 26.73200035095215 -69.28399658203124 L 26.66699981689453 -69.22699737548827 L 26.624000549316406 -69.18791198730467 L 26.62299919128418 -69.18699645996092 L 26.604000091552734 -69.1689987182617 L 26.56399917602539 -69.13099670410155 L 26.56093406677246 -69.12819671630858 L 26.541000366210938 -69.11000061035155 L 26.507415771484375 -69.07749938964842 L 26.493091583251953 -69.06363677978514 L 26.479000091552734 -69.0500030517578 L 26.41900062561035 -68.98999786376952 L 26.360000610351562 -68.92800140380858 L 26.301000595092773 -68.86499786376952 L 26.243999481201172 -68.80100250244139 L 26.187999725341797 -68.73600006103514 L 26.132999420166016 -68.6699981689453 L 26.083030700683594 -68.60800170898436 L 26.07900047302246 -68.60299682617186 L 26.025999069213867 -68.53500366210936 L 25.923999786376953 -68.39700317382811 L 25.875 -68.32599639892577 L 25.83506202697754 -68.26581573486327 L 25.804000854492188 -68.21900177001952 L 25.733999252319336 -68.10700225830077 L 25.71299934387207 -68.07399749755858 L 25.62700080871582 -67.9250030517578 L 25.54599952697754 -67.7730026245117 L 25.538000106811523 -67.75700378417967 L 25.474000930786133 -67.62499999999999 L 25.465999603271484 -67.60800170898436 L 25.4552001953125 -67.58399963378905 L 25.42099952697754 -67.50800323486327 L 25.410999298095703 -67.48500061035155 L 25.368000030517578 -67.38300323486327 L 25.327999114990234 -67.27999877929686 L 25.319000244140625 -67.25800323486327 L 25.31264877319336 -67.24047088623045 L 25.29400062561035 -67.18900299072264 L 25.28700065612793 -67.17199707031249 L 25.274999618530273 -67.13700103759764 L 25.26300048828125 -67.10199737548827 L 25.256999969482422 -67.08300018310545 L 25.253334045410156 -67.07199859619139 L 25.25200080871582 -67.06800079345702 L 25.239999771118164 -67.03199768066405 L 25.229999542236328 -66.9970016479492 L 25.20800018310547 -66.92600250244139 L 25.187999725341797 -66.85600280761717 L 25.167999267578125 -66.78500366210936 L 25.149999618530273 -66.71399688720702 L 25.125 -66.60600280761717 L 25.11573600769043 -66.55999755859374 L 25.09600067138672 -66.46199798583983 L 25.07200050354004 -66.31600189208983 L 25.05299949645996 -66.17099761962889 L 25.02899932861328 -66.0439987182617 L 25.027000427246094 -66.01100158691405 L 25.025999069213867 -65.98899841308592 L 25.025999069213867 -65.96495056152342 L 25.025999069213867 -65.96099853515624 L 25.0241641998291 -65.53600311279295 L 25.02199935913086 -65.03500366210936 L 25 -59.381958007812486 L 25 -49.98899841308592 L 25.00200080871582 -49.91500091552733 L 25.003999710083008 -49.86500167846678 L 25.014999389648438 -49.67900085449217 L 25.014999389648438 -49.67800140380858 L 25.015111923217773 -49.67710113525389 L 25.020999908447266 -49.63000106811522 L 25.05500030517578 -49.333000183105455 L 25.061649322509766 -49.304809570312486 L 25.079999923706055 -49.22700119018553 L 25.097187042236328 -49.15200042724608 L 25.211999893188477 -48.651000976562486 L 25.226999282836914 -48.58499908447264 L 25.367412567138672 -48.20628356933592 L 25.368999481201172 -48.201999664306626 L 25.374000549316406 -48.186000823974595 L 25.378280639648438 -48.17697143554686 L 25.45599937438965 -48.013000488281236 L 25.58799934387207 -47.72499847412109 L 25.667999267578125 -47.57699966430663 L 25.72273826599121 -47.48577117919921 L 25.7549991607666 -47.43199920654296 L 25.763107299804688 -47.42031860351562 L 25.983999252319336 -47.10200119018554 L 26.23900032043457 -46.79299926757812 L 26.368000030517578 -46.65700149536132 L 26.40999984741211 -46.60400009155273 L 26.46299934387207 -46.535999298095696 L 32.03900146484375 -40.95999908447265 L 32.768001556396484 -40.230998992919915 L 36.5 -36.4990005493164 L 40.23099899291992 -32.76800155639648 L 40.959999084472656 -32.03900146484374 L 43.53499984741211 -29.46400070190429 L 43.59600067138672 -29.402000427246087 L 43.65599822998047 -29.33900070190429 L 43.71500015258789 -29.274999618530266 L 43.77188491821289 -29.21026992797851 L 43.77299880981445 -29.208999633789055 L 43.784000396728516 -29.195999145507805 L 43.82899856567383 -29.142999649047844 L 43.8849983215332 -29.07600021362304 L 43.93899917602539 -29.006999969482415 L 43.992000579833984 -28.93799972534179 L 44.04399871826172 -28.86800003051757 L 44.095001220703125 -28.79700088500976 L 44.14400100708008 -28.72500038146972 L 44.17884826660156 -28.67200088500976 L 44.19200134277344 -28.652000427246087 L 44.23899841308594 -28.579000473022454 L 44.28499984741211 -28.503999710083 L 44.32899856567383 -28.42900085449218 L 44.37200164794922 -28.353000640869134 L 44.41400146484375 -28.27599906921386 L 44.45399856567383 -28.19899940490722 L 44.49300003051758 -28.121000289916985 L 44.53099822998047 -28.041999816894524 L 44.56700134277344 -27.962999343872063 L 44.60200119018555 -27.88299942016601 L 44.6349983215332 -27.80200004577636 L 44.66699981689453 -27.72100067138671 L 44.69370651245117 -27.64800071716308 L 44.72700119018555 -27.55699920654296 L 44.745540618896484 -27.499999999999993 L 45 -27.499999999999993 L 48 -27.499999999999993 L 75 -27.499999999999993 L 75.5 -27.499999999999993 L 75.5 28.499999999999993 L 48 28.499999999999993 L 45 28.499999999999993 L 45 28.67200088500976 L 45 29.92900085449218 L 44.999000549316406 30.016000747680657 L 44.99700164794922 30.103000640869134 L 44.992000579833984 30.190999984741204 L 44.98699951171875 30.27799987792968 L 44.97999954223633 30.364999771118157 L 44.97200012207031 30.451999664306634 L 44.9630012512207 30.538000106811516 L 44.95000076293945 30.624999999999993 L 44.9370002746582 30.711000442504876 L 44.9355354309082 30.719999313354485 L 44.92300033569336 30.79700088500976 L 44.90700149536133 30.88299942016601 L 44.88999938964844 30.968000411987298 L 44.87200164794922 31.05400085449218 L 44.85100173950195 31.138999938964837 L 44.83000183105469 31.219999313354485 L 44.82899856567383 31.2229995727539 L 44.78099822998047 31.391000747680657 L 44.72700119018555 31.55699920654296 L 44.66699981689453 31.72100067138671 L 44.65791320800781 31.743999481201165 L 44.6349983215332 31.80200004577636 L 44.60200119018555 31.88299942016601 L 44.56700134277344 31.962999343872063 L 44.53099822998047 32.041999816894524 L 44.49300003051758 32.12099838256835 L 44.45399856567383 32.19900131225585 L 44.430999755859375 32.243999481201165 L 44.41400146484375 32.27600097656249 L 44.37200164794922 32.35300064086913 L 44.32899856567383 32.42900085449218 L 44.28499984741211 32.50400161743163 L 44.23899841308594 32.57899856567382 L 44.19200134277344 32.65200042724609 L 44.14400100708008 32.72499847412109 L 44.1147346496582 32.76800155639648 L 44.095001220703125 32.79700088500976 L 44.04399871826172 32.86800003051757 L 43.992000579833984 32.93799972534179 L 43.93899917602539 33.006999969482415 L 43.8849983215332 33.07600021362304 L 43.82899856567383 33.14300155639648 L 43.77299880981445 33.208999633789055 L 43.72100067138672 33.26800155639648 L 43.71500015258789 33.2750015258789 L 43.711143493652344 33.279182434082024 L 43.65599822998047 33.33900070190429 L 43.59600067138672 33.40200042724609 L 43.00699996948242 33.99100112915038 L 41.68299865722656 35.31600189208984 L 36.5 40.4990005493164 L 32.768001556396484 44.230998992919915 L 27.847000122070312 49.15200042724608 L 26.458999633789062 50.54000091552733 L 26.406999588012695 50.59299850463866 L 26.393999099731445 50.60599899291991 L 26.381000518798828 50.619499206542955 L 26.341999053955078 50.659999847412095 L 26.283000946044922 50.723999023437486 L 26.225000381469727 50.79000091552733 L 26.172500610351562 50.85187530517577 L 26.16900062561035 50.85599899291991 L 26.065000534057617 50.98600006103514 L 26.064666748046875 50.986667633056626 L 26.06399917602539 50.98799896240233 L 26.058000564575195 50.99499893188475 L 26.049999237060547 51.00500106811522 L 25.908903121948242 51.20000076293944 L 25.871999740600586 51.25099945068358 L 25.857999801635742 51.27099990844725 L 25.8439998626709 51.29199981689452 L 25.650999069213867 51.6069984436035 L 25.60300064086914 51.699001312255845 L 25.511999130249023 51.879001617431626 L 25.459999084472656 51.97900009155272 L 25.45800018310547 51.98500061035155 L 25.457075119018555 51.98764038085936 L 25.176000595092773 52.79100036621092 L 25.138999938964844 52.90499877929686 L 25.135000228881836 52.918998718261705 L 25.125999450683594 52.96900177001952 L 25.068866729736328 53.2480010986328 L 25.06599998474121 53.26200103759764 L 25.056493759155273 53.32406616210936 L 25.048999786376953 53.3730010986328 L 25.034000396728516 53.484001159667955 L 25.030000686645508 53.52299880981444 L 25.016342163085938 53.66836547851561 L 25.016000747680664 53.67200088500975 L 25.014999389648438 53.685001373291 L 25.010000228881836 53.747001647949205 L 25.006999969482422 53.79600143432616 L 25.006000518798828 53.80799865722655 L 25.006000518798828 53.8123321533203 L 25.006000518798828 53.8209991455078 L 25.000999450683594 53.99000167846678 L 25 54.00199890136717 L 25 54.01499938964842 L 24.999027252197266 57.34400177001952 L 24.999000549316406 57.43799972534178 L 24.999000549316406 65.53600311279295 L 24.999000549316406 81.9199981689453 L 24.999000549316406 90.11199951171874 L 24.999000549316406 92.04299926757811 L 24.99799919128418 92.08000183105467 L 24.994457244873047 92.16000366210936 L 24.986000061035156 92.35099792480467 L 24.976903915405273 92.46676635742186 L 24.975000381469727 92.49099731445311 L 24.9689998626709 92.54799652099608 L 24.959999084472656 92.6220016479492 L 24.954999923706055 92.65899658203124 L 24.950000762939453 92.69699859619139 L 24.94906234741211 92.7029342651367 L 24.94099998474121 92.75399780273436 L 24.93899917602539 92.76999664306639 L 24.927000045776367 92.84400177001952 L 24.905000686645508 92.93900299072264 L 24.89900016784668 92.96399688720702 L 24.897985458374023 92.9692916870117 L 24.885000228881836 93.03700256347655 L 24.871000289916992 93.11100006103514 L 24.869464874267578 93.1179962158203 L 24.854999542236328 93.18399810791014 L 24.836999893188477 93.25700378417967 L 24.819000244140625 93.32900238037108 L 24.795000076293945 93.41200256347655 L 24.777000427246094 93.47299957275389 L 24.731000900268555 93.61499786376952 L 24.704999923706055 93.68499755859374 L 24.66200065612793 93.78900146484374 L 24.636999130249023 93.85900115966795 L 24.608999252319336 93.92900085449217 L 24.58099937438965 93.9980010986328 L 24.576000213623047 94.00883483886717 L 24.575000762939453 94.01100158691405 L 24.551000595092773 94.06700134277342 L 24.520000457763672 94.13400268554686 L 24.511999130249023 94.15200042724608 L 24.502897262573242 94.17096710205077 L 24.488000869750977 94.20200347900389 L 24.484954833984375 94.20800018310545 L 24.45400047302246 94.2689971923828 L 24.408000946044922 94.35700225830077 L 24.371999740600586 94.42299652099608 L 24.32900047302246 94.49900054931639 L 24.28499984741211 94.57399749755858 L 24.23900032043457 94.6490020751953 L 24.20199966430664 94.70700073242186 L 24.19333267211914 94.72000122070311 L 24.191999435424805 94.7220001220703 L 24.143999099731445 94.7949981689453 L 24.094999313354492 94.8669967651367 L 24.04400062561035 94.93800354003905 L 23.992000579833984 95.00800323486327 L 23.93899917602539 95.07700347900389 L 23.885000228881836 95.14600372314452 L 23.82900047302246 95.21299743652342 L 23.81287956237793 95.23200225830077 L 23.773000717163086 95.27899932861327 L 23.71500015258789 95.34500122070311 L 23.6560001373291 95.40899658203124 L 23.59600067138672 95.4720001220703 L 23.552000045776367 95.51795196533202 L 23.551000595092773 95.5189971923828 L 23.53499984741211 95.53500366210936 L 23.472000122070312 95.5960006713867 L 23.409000396728516 95.65599822998045 L 23.344999313354492 95.71499633789061 L 23.32699966430664 95.73100280761717 L 23.312143325805664 95.74400329589842 L 23.27899932861328 95.7730026245117 L 23.14699935913086 95.88500213623045 L 23.077999114990234 95.93900299072264 L 23.009000778198242 95.9919967651367 L 23 95.99868774414061 L 22.93899917602539 96.04399871826169 L 22.868000030517578 96.0950012207031 L 22.79599952697754 96.14399719238278 L 22.722999572753906 96.19200134277341 L 22.649999618530273 96.23899841308591 L 22.622282028198242 96.25599670410153 L 22.575000762939453 96.28500366210935 L 22.527999877929688 96.31300354003903 L 22.5 96.32900238037107 L 22.423999786376953 96.37200164794919 L 22.347000122070312 96.41400146484372 L 22.270000457763672 96.45400238037107 L 22.191999435424805 96.49400329589841 L 22.113000869750977 96.53099822998044 L 22.034000396728516 96.56700134277341 L 21.95400047302246 96.60199737548825 L 21.832000732421875 96.65100097656247 L 21.709999084472656 96.69699859619138 L 21.628000259399414 96.72699737548825 L 21.541000366210938 96.75499725341794 L 21.503999710083008 96.76717376708982 L 21.461999893188477 96.78099822998044 L 21.29400062561035 96.83000183105466 L 21.16699981689453 96.86100006103513 L 21.040000915527344 96.88999938964841 L 20.910999298095703 96.91500091552732 L 20.781999588012695 96.93800354003903 L 20.695999145507812 96.94999694824216 L 20.608999252319336 96.96199798583982 L 20.523000717163086 96.97200012207028 L 20.479999542236328 96.97599792480466 L 20.43600082397461 96.98100280761716 L 20.173999786376953 96.99700164794919 L 20.086999893188477 96.99900054931638 L 20 96.99999999999997 L 16.384000778198242 96.99999999999997 L 0 96.99999999999997 L -16.384000778198242 96.99999999999997 L -20 96.99999999999997 L -20.086999893188477 96.99900054931638 L -20.173999786376953 96.99700164794919 L -20.261999130249023 96.99199676513669 L -20.349000930786133 96.98699951171872 L -20.43600082397461 96.98100280761716 L -20.479999542236328 96.97599792480466 L -20.523000717163086 96.97200012207028 L -20.608999252319336 96.96199798583982 L -20.695999145507812 96.94999694824216 L -20.781999588012695 96.93800354003903 L -20.799999237060547 96.93499755859372 L -20.864999771118164 96.92400360107419 L -20.868000030517578 96.92366790771482 L -20.874000549316406 96.92299652099607 L -20.882587432861328 96.92123413085935 L -20.94700050354004 96.90799713134763 L -20.965999603271484 96.90499877929685 L -20.992000579833984 96.89972686767575 L -21.040000915527344 96.88999938964841 L -21.058000564575195 96.88600158691403 L -21.125 96.87200164794919 L -21.1492862701416 96.86571502685544 L -21.209999084472656 96.84999847412107 L -21.29400062561035 96.83000183105466 L -21.347015380859375 96.81453704833982 L -21.461999893188477 96.78099822998044 L -21.503999710083008 96.76734924316403 L -21.54199981689453 96.75499725341794 L -21.555999755859375 96.74999999999997 L -21.82900047302246 96.65100097656247 L -21.851999282836914 96.6419982910156 L -21.86400032043457 96.63800048828122 L -21.875999450683594 96.63300323486325 L -21.898000717163086 96.62300109863278 L -22.527999877929688 96.26499938964841 L -22.86886978149414 96.07097625732419 L -22.910999298095703 96.04699707031247 L -22.922000885009766 96.04100036621091 L -22.933000564575195 96.03600311279294 L -22.954999923706055 96.02400207519528 L -22.979537963867188 96.00961303710935 L -22.983999252319336 96.00700378417966 L -23 95.99633026123045 L -23.00200080871582 95.99500274658202 L -23.038000106811523 95.97000122070311 L -23.10700035095215 95.90899658203124 L -23.474140167236328 95.57650756835936 L -23.604999542236328 95.45800018310545 L -23.958999633789062 95.0179977416992 L -24.038000106811523 94.92700195312499 L -24.055999755859375 94.8990020751953 L -24.09600067138672 94.83200073242186 L -24.170000076293945 94.70700073242186 L -24.463258743286133 94.20800018310545 L -24.552000045776367 94.05699920654295 L -24.575000762939453 93.99900054931639 L -24.576000213623047 93.99652099609374 L -24.597999572753906 93.94200134277342 L -24.91200065612793 92.8730010986328 L -24.934999465942383 92.77899932861327 L -24.989999771118164 92.11399841308592 L -24.999000549316406 91.99900054931639 L -24.999000549316406 81.9199981689453 L -24.999000549316406 65.53600311279295 L -24.999000549316406 54.09420013427733 L -24.999000549316406 54.03960037231444 L -24.999000549316406 54.02700042724608 L -25.020999908447266 53.747001647949205 L -25.041000366210938 53.48099899291991 L -25.04537582397461 53.417114257812486 L -25.04599952697754 53.40800094604491 L -25.054000854492188 53.35599899291991 L -25.261999130249023 52.50999832153319 L -25.277114868164062 52.44670104980467 L -25.277999877929688 52.44300079345702 L -25.280000686645508 52.43999862670897 L -25.34983253479004 52.277709960937486 L -25.35099983215332 52.27500152587889 L -25.631999969482422 51.699001312255845 L -25.788999557495117 51.37699890136717 L -25.884000778198242 51.25099945068358 L -26.424903869628906 50.575370788574205 L -26.426000595092773 50.574001312255845 L -26.62299919128418 50.37699890136717 L -27.347999572753906 49.651000976562486 L -27.847705841064453 49.15200042724608 L -28.055999755859375 48.94400024414061 L -28.67099952697754 48.32799911499022 L -29.395999908447266 47.60400009155273 L -30.7189998626709 46.27999877929687 L -31.444000244140625 45.55599975585937 L -32.766998291015625 44.23199844360351 L -32.768001556396484 44.230998992919915 L -35.540000915527344 41.45999908447265 L -39.6349983215332 37.36399841308593 L -43.54399871826172 33.45500183105468 L -43.59231948852539 33.405715942382805 L -43.59400177001953 33.403999328613274 L -43.65299987792969 33.34199905395507 L -43.71099853515625 33.278999328613274 L -43.72100067138672 33.26800155639648 L -43.768001556396484 33.21500015258788 L -43.823001861572266 33.1500015258789 L -43.87799835205078 33.083999633789055 L -43.930999755859375 33.01800155639648 L -43.983001708984375 32.950000762939446 L -44.034000396728516 32.881999969482415 L -44.08399963378906 32.812000274658196 L -44.11417007446289 32.76800155639648 L -44.13199996948242 32.74200057983398 L -44.18000030517578 32.671001434326165 L -44.22600173950195 32.59899902343749 L -44.270999908447266 32.52700042724609 L -44.314998626708984 32.45399856567382 L -44.356998443603516 32.37900161743163 L -44.39899826049805 32.305000305175774 L -44.40366744995117 32.29566574096679 L -44.404998779296875 32.29299926757812 L -44.42387771606445 32.25600051879882 L -44.43000030517578 32.243999481201165 L -44.47700119018555 32.15299987792968 L -44.513999938964844 32.07600021362304 L -44.54999923706055 31.9990005493164 L -44.584999084472656 31.920999526977532 L -44.61800003051758 31.84199905395507 L -44.650001525878906 31.763000488281243 L -44.65745544433594 31.743999481201165 L -44.680999755859375 31.684000015258782 L -44.709999084472656 31.603000640869134 L -44.737998962402344 31.52300071716308 L -44.76499938964844 31.441999435424798 L -44.790000915527344 31.360000610351555 L -44.81399917602539 31.27799987792968 L -44.83000183105469 31.219999313354485 L -44.83599853515625 31.195999145507805 L -44.858001708984375 31.11300086975097 L -44.866180419921875 31.075273513793938 L -44.875999450683594 31.0300006866455 L -44.89400100708008 30.945999145507805 L -44.9109992980957 30.861999511718743 L -44.93646240234375 30.719999313354485 L -44.9370002746582 30.71699905395507 L -44.941001892089844 30.694000244140618 L -44.95199966430664 30.610000610351555 L -44.9640007019043 30.524999618530266 L -44.96767044067383 30.490335464477532 L -44.972999572753906 30.44000053405761 L -44.98099899291992 30.35499954223632 L -44.98699951171875 30.270000457763665 L -44.99700164794922 30.10000038146972 L -44.999000549316406 30.013999938964837 L -45 29.92900085449218 L -45 28.67200088500976 L -45 28.499999999999993 L -48 28.499999999999993 L -75.5 28.499999999999993 L -75.5 -27.499999999999993 L -75 -27.499999999999993 L -48 -27.499999999999993 L -45 -27.499999999999993 L -44.835453033447266 -27.499999999999993 L -44.80082702636719 -27.499999999999993 L -44.74605178833008 -27.499999999999993 L -44.74566650390625 -27.499999999999993 L -44.737998962402344 -27.52300071716308 L -44.709999084472656 -27.603000640869134 L -44.69388961791992 -27.64800071716308 L -44.680999755859375 -27.684000015258782 L -44.650001525878906 -27.763000488281243 L -44.61800003051758 -27.84199905395507 L -44.584999084472656 -27.920999526977532 L -44.54999923706055 -27.9990005493164 L -44.513999938964844 -28.07600021362304 L -44.47700119018555 -28.15299987792968 L -44.47331619262695 -28.159999847412102 L -44.46699905395508 -28.17200088500976 L -44.404998779296875 -28.292999267578118 L -44.39899826049805 -28.305000305175774 L -44.371482849121094 -28.353483200073235 L -44.356998443603516 -28.378999710083 L -44.314998626708984 -28.454000473022454 L -44.305274963378906 -28.470136642456048 L -44.270999908447266 -28.527000427246087 L -44.22600173950195 -28.599000930786126 L -44.18000030517578 -28.670999526977532 L -44.179325103759766 -28.67200088500976 L -44.13199996948242 -28.742000579833977 L -44.08399963378906 -28.812000274658196 L -44.034000396728516 -28.881999969482415 L -43.983001708984375 -28.950000762939446 L -43.930999755859375 -29.017999649047844 L -43.87799835205078 -29.083999633789055 L -43.847999572753906 -29.12000083923339 L -43.823001861572266 -29.149999618530266 L -43.784000396728516 -29.195999145507805 L -43.768001556396484 -29.215000152587884 L -43.71099853515625 -29.278999328613274 L -43.65299987792969 -29.34199905395507 L -43.59400177001953 -29.403999328613274 L -43.5369987487793 -29.46199989318847 L -40.959999084472656 -32.03900146484374 L -40.23099899291992 -32.76800155639648 L -32.768001556396484 -40.230998992919915 L -32.03900146484375 -40.95999908447265 L -26.770389556884766 -46.22861099243163 L -26.749000549316406 -46.24999999999999 L -26.423999786376953 -46.60400009155273 L -26.208999633789062 -46.8370018005371 L -26.08300018310547 -46.98199844360351 L -25.913999557495117 -47.20199966430663 L -25.892568588256836 -47.230415344238274 L -25.825000762939453 -47.31999969482421 L -25.58300018310547 -47.76699829101562 L -25.538000106811523 -47.84500122070312 L -25.48900032043457 -47.96599960327148 L -25.22100067138672 -48.651000976562486 L -25.17300033569336 -48.77500152587889 L -25.149999618530273 -48.88600158691405 L -25.09844207763672 -49.15200042724608 L -25.03700065612793 -49.46900177001952 L -25.033000946044922 -49.497001647949205 L -25.031368255615234 -49.511684417724595 L -25.027999877929688 -49.54199981689452 L -25.020999908447266 -49.61500167846678 L -25.016000747680664 -49.68700027465819 L -25.007999420166016 -49.833000183105455 L -25.003999710083008 -49.888000488281236 L -25.00200080871582 -49.91799926757811 L -25 -49.991001129150376 L -24.999000549316406 -50.063999176025376 L -24.999000549316406 -57.29100036621092 L -24.999000549316406 -59.124999999999986 L -25.010000228881836 -65.03500366210936 L -25.010711669921875 -65.53600311279295 L -25.01099967956543 -65.73899841308592 L -25.011999130249023 -65.75099945068358 L -25.011999130249023 -65.77500152587889 L -25.01300048828125 -65.78800201416014 L -25.0132999420166 -65.79160308837889 L -25.014999389648438 -65.81199645996092 L -25.016799926757812 -65.82279968261717 L -25.017000198364258 -65.82399749755858 L -25.017000198364258 -65.82499694824217 L -25.01799964904785 -65.83599853515624 L -25.020000457763672 -65.84899902343749 L -25.086999893188477 -66.42299652099608 L -25.093000411987305 -66.45899963378905 L -25.113948822021484 -66.55999755859374 L -25.121000289916992 -66.59400177001952 L -25.12299919128418 -66.60600280761717 L -25.14299964904785 -66.69000244140624 L -25.156999588012695 -66.74400329589842 L -25.159631729125977 -66.75584411621092 L -25.160999298095703 -66.76200103759764 L -25.16699981689453 -66.78199768066405 L -25.207000732421875 -66.9240036010742 L -25.21500015258789 -66.94999694824217 L -25.236000061035156 -67.01999664306639 L -25.243000030517578 -67.04100036621092 L -25.253334045410156 -67.07199859619139 L -25.256999969482422 -67.08300018310545 L -25.26300048828125 -67.10199737548827 L -25.2723331451416 -67.12899780273436 L -25.291000366210938 -67.18299865722655 L -25.320999145507812 -67.26300048828124 L -25.351999282836914 -67.34300231933592 L -25.384000778198242 -67.42299652099608 L -25.417999267578125 -67.50199890136717 L -25.452999114990234 -67.58000183105467 L -25.454845428466797 -67.58399963378905 L -25.48900032043457 -67.65799713134764 L -25.527000427246094 -67.73500061035155 L -25.56599998474121 -67.81199645996092 L -25.606000900268555 -67.88700103759764 L -25.648000717163086 -67.96199798583983 L -25.69099998474121 -68.03700256347655 L -25.733999252319336 -68.10700225830077 L -25.735000610351562 -68.11000061035155 L -25.7810001373291 -68.18299865722655 L -25.82699966430664 -68.25499725341795 L -25.875 -68.32599639892577 L -25.923999786376953 -68.39700317382811 L -26.025999069213867 -68.53500366210936 L -26.07900047302246 -68.60299682617186 L -26.083030700683594 -68.60800170898436 L -26.132999420166016 -68.6699981689453 L -26.187999725341797 -68.73600006103514 L -26.243999481201172 -68.80100250244139 L -26.301000595092773 -68.86499786376952 L -26.360000610351562 -68.92800140380858 L -26.41900062561035 -68.98999786376952 L -26.479000091552734 -69.0500030517578 L -26.493091583251953 -69.06363677978514 L -26.541000366210938 -69.11000061035155 L -26.56399917602539 -69.13099670410155 L -26.604000091552734 -69.1689987182617 L -26.62299919128418 -69.18699645996092 L -26.624000549316406 -69.18791198730467 L -26.66699981689453 -69.22699737548827 L -26.73200035095215 -69.28399658203124 L -26.797000885009766 -69.33899688720702 L -26.863000869750977 -69.3939971923828 L -26.930999755859375 -69.44699859619139 L -26.999000549316406 -69.49900054931639 L -27.176332473754883 -69.63200378417967 L -28.67099952697754 -70.75299835205077 L -31.969999313354492 -73.22699737548827 L -32.63772201538086 -73.72799682617186 L -32.766998291015625 -73.82499694824217 L -32.768001556396484 -73.82575225830077 L -34.999000549316406 -75.49900054931639 L -35.016998291015625 -75.51300048828124 L -35.14799880981445 -75.61499786376952 L -35.3061637878418 -75.77600097656249 L -35.59400177001953 -76.06900024414061 L -35.62736511230469 -76.10292816162108 L -35.65299987792969 -76.12899780273436 L -35.68899917602539 -76.16000366210936 L -35.715999603271484 -76.18499755859374 L -35.74688720703125 -76.21878051757811 L -35.74800109863281 -76.22000122070311 L -35.76100158691406 -76.23799896240233 L -35.80799865722656 -76.30200195312499 L -36.28180694580078 -76.9214401245117 L -36.28300094604492 -76.92299652099608 L -36.284000396728516 -76.9240036010742 L -36.31999969482422 -76.99500274658202 L -36.34600067138672 -77.04699707031249 L -36.48699951171875 -77.32299804687499 L -36.58000183105469 -77.50499725341795 L -36.70090103149414 -77.82399749755858 L -36.74599838256836 -77.94300079345702 L -36.76900100708008 -78.00700378417967 L -36.76900100708008 -78.00800323486327 L -36.862998962402344 -78.36599731445311 L -36.86399841308594 -78.36975097656249 L -36.87900161743164 -78.42600250244139 L -36.887001037597656 -78.45800018310545 L -36.89500045776367 -78.49400329589842 L -36.95399856567383 -78.83899688720702 L -36.959999084472656 -78.87799835205077 L -36.9640007019043 -78.91200256347655 L -36.987998962402344 -79.18699645996092 L -36.99100112915039 -79.23600006103514 L -36.999000549316406 -79.45600128173827 L -36.99800109863281 -81.4189987182617 L -36.997840881347656 -81.9199981689453 L -36.99700164794922 -84.5960006713867 L -36.99300003051758 -84.66000366210936 L -36.948001861572266 -85.19999694824217 L -36.9370002746582 -85.26999664306639 L -36.895999908447266 -85.50599670410155 L -36.89400100708008 -85.51499938964842 L -36.86399841308594 -85.63597106933592 L -36.862998962402344 -85.63999938964842 L -36.81999969482422 -85.81800079345702 L -36.80400085449219 -85.87899780273436 L -36.76298141479492 -86.01599884033202 L -36.75400161743164 -86.04599761962889 L -36.72999954223633 -86.11299896240233 L -36.694000244140625 -86.21800231933592 L -36.66847229003906 -86.28476715087889 L -36.667999267578125 -86.28600311279295 L -36.65995788574219 -86.30725860595702 L -36.65399932861328 -86.32299804687499 L -36.64099884033203 -86.35500335693358 L -36.61399841308594 -86.42299652099608 L -36.584999084472656 -86.49099731445311 L -36.57500076293945 -86.51300048828124 L -36.56865310668945 -86.52799987792967 L -36.56484603881836 -86.53700256347655 L -36.56399917602539 -86.53900146484374 L -36.54499816894531 -86.58000183105467 L -36.50899887084961 -86.65799713134764 L -36.47100067138672 -86.73500061035155 L -36.43199920654297 -86.81199645996092 L -36.391998291015625 -86.88700103759764 L -36.349998474121094 -86.96199798583983 L -36.30699920654297 -87.03700256347655 L -36.30519104003906 -87.04000091552733 L -36.26300048828125 -87.11000061035155 L -36.21699905395508 -87.18299865722655 L -36.17100143432617 -87.25499725341795 L -36.12300109863281 -87.32599639892577 L -36.07400131225586 -87.39700317382811 L -35.97200012207031 -87.53500366210936 L -35.95000076293945 -87.56300354003905 L -35.91899871826172 -87.60299682617186 L -35.901947021484375 -87.62416076660155 L -35.8650016784668 -87.6699981689453 L -35.84000015258789 -87.69999694824217 L -35.810001373291016 -87.73600006103514 L -35.75400161743164 -87.80100250244139 L -35.696998596191406 -87.86499786376952 L -35.63800048828125 -87.92800140380858 L -35.57899856567383 -87.98999786376952 L -35.51900100708008 -88.0500030517578 L -35.50453186035156 -88.06400299072264 L -35.457000732421875 -88.11000061035155 L -35.39400100708008 -88.1689987182617 L -35.33100128173828 -88.22699737548827 L -35.26599884033203 -88.28399658203124 L -35.20100021362305 -88.33899688720702 L -35.1349983215332 -88.3939971923828 L -35.06700134277344 -88.44699859619139 L -35.01081085205078 -88.48996734619139 L -35.00394821166992 -88.49521636962889 L -34.999000549316406 -88.49900054931639 L -34.88199996948242 -88.58699798583983 L -34.814998626708984 -88.63700103759764 L -33.516998291015625 -89.61100006103514 L -33.1870002746582 -89.85800170898436 L -32.8483772277832 -90.11199951171874 L -32.768001556396484 -90.17228698730467 L -30.562000274658203 -91.82700347900389 L -28.67099952697754 -93.22399902343749 L -26.4689998626709 -94.85099792480467 L -25.804000854492188 -95.34500122070311 L -25.79599952697754 -95.34799957275389 L -25.631000518798828 -95.4199981689453 L -25.416000366210938 -95.53199768066405 L -24.917999267578125 -95.73899841308592 L -24.877906799316406 -95.74861907958983 L -24.868000030517578 -95.75099945068358 L -24.576000213623047 -95.81578063964842 L -24.575000762939453 -95.81600189208983 L -24.177000045776367 -95.90599822998045 L -24.15653419494629 -95.90883636474608 L -24 -95.93051147460936 L -24 -95.93114471435545 L -24 -95.9435577392578 L -24 -95.94602203369139 L -24 -95.99999999999997 L -24 -140.99999999999997 L -45 -140.99999999999997 L -48 -140.99999999999997 L -75 -140.99999999999997 L -75 -160.99999999999997 L -48 -160.99999999999997 L -45 -160.99999999999997 L -23 -160.99999999999997 L 23 -160.99999999999997 L 36.5 -160.99999999999997 L 45 -160.99999999999997 L 48 -160.99999999999997 L 75 -160.99999999999997 L 75 -140.99999999999997 M 32.98699951171875 -82.95500183105467 L 32.9630012512207 -82.98000335693358 L 32.9370002746582 -83.00499725341795 L 32.931846618652344 -83.0096969604492 L 32.90299987792969 -83.03600311279295 L 32.89699935913086 -83.04000091552733 L 32.874000549316406 -83.05999755859374 L 32.85499954223633 -83.07499694824217 L 32.83599853515625 -83.08999633789061 L 32.80699920654297 -83.11100006103514 L 32.7869987487793 -83.12599945068358 L 32.77000045776367 -83.13800048828124 L 32.768001556396484 -83.1393356323242 L 32.763999938964844 -83.14199829101561 L 32.737998962402344 -83.15899658203124 L 32.707000732421875 -83.17800140380858 L 32.689998626708984 -83.18800354003905 L 32.68600082397461 -83.19100189208983 L 32.6697998046875 -83.19999694824217 L 32.667999267578125 -83.20099639892577 L 32.6619987487793 -83.20500183105467 L 32.60200119018555 -83.23500061035155 L 32.5359992980957 -83.26499938964842 L 32.50299835205078 -83.27799987792967 L 32.46900177001953 -83.29100036621092 L 32.45500183105469 -83.29599761962889 L 32.453285217285156 -83.29664611816405 L 32.446998596191406 -83.2990036010742 L 32.4119987487793 -83.30999755859374 L 32.37799835205078 -83.3209991455078 L 32.34299850463867 -83.33000183105467 L 32.297000885009766 -83.34100341796874 L 32.26100158691406 -83.34899902343749 L 32.25600051879883 -83.34983062744139 L 32.255001068115234 -83.34999847412108 L 32.237998962402344 -83.35299682617186 L 32.19300079345703 -83.36100006103514 L 32.192665100097656 -83.36100006103514 L 32.19200134277344 -83.36100006103514 L 32.185001373291016 -83.36199951171874 L 32.18299865722656 -83.36199951171874 L 32.18199920654297 -83.36199951171874 L 32.16600036621094 -83.36399841308592 L 32.14500045776367 -83.36599731445311 L 32.13800048828125 -83.3669967651367 L 32.12799835205078 -83.36796569824217 L 32.122501373291016 -83.36849975585936 L 32.106998443603516 -83.37000274658202 L 32.10300064086914 -83.37000274658202 L 32.07699966430664 -83.3720016479492 L 32.066001892089844 -83.3720016479492 L 32.06399917602539 -83.37215423583983 L 32.053001403808594 -83.3730010986328 L 32.04199981689453 -83.3730010986328 L 32.01599884033203 -83.37400054931639 L 32 -83.37400054931639 L 31.974000930786133 -83.37400054931639 L 31.945999145507812 -83.3730010986328 L 31.921316146850586 -83.37152862548827 L 31.878999710083008 -83.36900329589842 L 31.854999542236328 -83.36599731445311 L 31.83099937438965 -83.36399841308592 L 31.808000564575195 -83.36100006103514 L 31.760000228881836 -83.35299682617186 L 31.743999481201172 -83.3501739501953 L 31.743000030517578 -83.34999847412108 L 31.695213317871094 -83.34008026123045 L 31.690000534057617 -83.33899688720702 L 31.666000366210938 -83.33300018310545 L 31.632999420166016 -83.32499694824217 L 31.6200008392334 -83.3209991455078 L 31.60849952697754 -83.31749725341795 L 31.597000122070312 -83.31400299072264 L 31.56800079345703 -83.30500030517577 L 31.562000274658203 -83.30300140380858 L 31.531999588012695 -83.29199981689452 L 31.52899932861328 -83.29100036621092 L 31.4950008392334 -83.27799987792967 L 31.488000869750977 -83.27513885498045 L 31.451000213623047 -83.26000213623045 L 31.406999588012695 -83.23999786376952 L 31.395999908447266 -83.23500061035155 L 31.375 -83.22399902343749 L 31.35300064086914 -83.21299743652342 L 31.329294204711914 -83.19999694824217 L 31.32200050354004 -83.1959991455078 L 31.291000366210938 -83.17800140380858 L 31.260000228881836 -83.15899658203124 L 31.23200035095215 -83.14065551757811 L 31.231000900268555 -83.13999938964842 L 31.219999313354492 -83.13200378417967 L 31.16200065612793 -83.08999633789061 L 31.124000549316406 -83.05999755859374 L 31.1200008392334 -83.05699920654295 L 31.09000015258789 -83.02999877929686 L 31.06100082397461 -83.00499725341795 L 31.04312515258789 -82.98781585693358 L 31.03499984741211 -82.98000335693358 L 31.01099967956543 -82.95500183105467 L 31 -82.94400024414061 L 30.993000030517578 -82.93699645996092 L 30.9689998626709 -82.91000366210936 L 30.945999145507812 -82.88300323486327 L 30.92300033569336 -82.85500335693358 L 30.899272918701172 -82.8239059448242 L 30.893999099731445 -82.81700134277342 L 30.865999221801758 -82.77799987792967 L 30.84600067138672 -82.7480010986328 L 30.82699966430664 -82.71700286865233 L 30.81599998474121 -82.69899749755858 L 30.81559944152832 -82.69840240478514 L 30.808666229248047 -82.68800354003905 L 30.808000564575195 -82.68699645996092 L 30.80699920654297 -82.68399810791014 L 30.79199981689453 -82.65699768066405 L 30.79111099243164 -82.65567016601561 L 30.790000915527344 -82.65399932861327 L 30.78499984741211 -82.6439971923828 L 30.775999069213867 -82.62599945068358 L 30.77400016784668 -82.6230010986328 L 30.76300048828125 -82.60199737548827 L 30.761999130249023 -82.59999847412108 L 30.75233268737793 -82.5786666870117 L 30.732999801635742 -82.53600311279295 L 30.722999572753906 -82.51100158691405 L 30.719999313354492 -82.50424957275389 L 30.7189998626709 -82.50199890136717 L 30.711999893188477 -82.48300170898436 L 30.697999954223633 -82.44300079345702 L 30.69700050354004 -82.44000244140624 L 30.69659996032715 -82.43900299072264 L 30.69499969482422 -82.43499755859374 L 30.69499969482422 -82.43399810791014 L 30.694334030151367 -82.43199920654295 L 30.68400001525879 -82.40100097656249 L 30.673999786376953 -82.36599731445311 L 30.665000915527344 -82.33200073242186 L 30.656999588012695 -82.29699707031249 L 30.64900016784668 -82.26100158691405 L 30.64299964904785 -82.22599792480467 L 30.63599967956543 -82.17800140380858 L 30.631999969482422 -82.1429977416992 L 30.628000259399414 -82.10700225830077 L 30.625999450683594 -82.0709991455078 L 30.625 -82.03500366210936 L 30.624000549316406 -81.98699951171874 L 30.625 -81.93900299072264 L 30.625999450683594 -81.93099975585936 L 30.626392364501953 -81.9199981689453 L 30.62700080871582 -81.90299987792967 L 30.6299991607666 -81.8669967651367 L 30.634000778198242 -81.83100128173827 L 30.638999938964844 -81.79599761962889 L 30.641000747680664 -81.78700256347655 L 30.658000946044922 -81.69899749755858 L 30.659788131713867 -81.69005584716795 L 30.65999984741211 -81.68900299072264 L 30.660167694091797 -81.68883514404295 L 30.660999298095703 -81.68800354003905 L 30.666000366210938 -81.6699981689453 L 30.714000701904297 -81.51499938964842 L 30.7189998626709 -81.50299835205077 L 30.719999313354492 -81.5006637573242 L 30.722000122070312 -81.49600219726561 L 30.759000778198242 -81.4189987182617 L 30.784486770629883 -81.36704254150389 L 30.78499984741211 -81.36599731445311 L 30.805999755859375 -81.32199859619139 L 30.819000244140625 -81.2990036010742 L 30.87299919128418 -81.2470016479492 L 31.033000946044922 -81.02999877929686 L 31.253171920776367 -80.89600372314452 L 31.566999435424805 -80.70500183105467 L 31.652999877929688 -80.67199707031249 L 31.788999557495117 -80.64199829101561 L 32.15399932861328 -80.6490020751953 L 32.21200180053711 -80.65100097656249 L 32.584999084472656 -80.76499938964842 L 32.65299987792969 -80.79000091552733 L 32.75199890136719 -80.84899902343749 L 32.766998291015625 -80.85900115966795 L 32.768001556396484 -80.85977172851561 L 32.88999938964844 -80.95400238037108 L 32.89799880981445 -80.95999908447264 L 32.90800094604492 -80.96900177001952 L 32.915000915527344 -80.97599792480467 L 33.04899978637695 -81.11599731445311 L 33.05400085449219 -81.12100219726561 L 33.06100082397461 -81.12899780273436 L 33.073001861572266 -81.14499664306639 L 33.215999603271484 -81.36599731445311 L 33.2239990234375 -81.37999725341795 L 33.23149871826172 -81.39949798583983 L 33.236656188964844 -81.41290283203124 L 33.23899841308594 -81.4189987182617 L 33.2400016784668 -81.42299652099608 L 33.347999572753906 -81.74900054931639 L 33.35200119018555 -81.76100158691405 L 33.36279296875 -81.9199981689453 L 33.367000579833984 -81.98200225830077 L 33.37300109863281 -82.04699707031249 L 33.369998931884766 -82.08699798583983 L 33.367000579833984 -82.13999938964842 L 33.36477279663086 -82.15671539306639 L 33.362998962402344 -82.1699981689453 L 33.349998474121094 -82.22599792480467 L 33.34400177001953 -82.26699829101561 L 33.3390007019043 -82.29699707031249 L 33.332000732421875 -82.32800292968749 L 33.32500076293945 -82.35800170898436 L 33.31700134277344 -82.38700103759764 L 33.308998107910156 -82.41699981689452 L 33.307640075683594 -82.42092132568358 L 33.30380630493164 -82.43199920654295 L 33.29999923706055 -82.44300079345702 L 33.29899978637695 -82.4459991455078 L 33.28499984741211 -82.48600006103514 L 33.279998779296875 -82.49957275390624 L 33.27799987792969 -82.50499725341795 L 33.27399826049805 -82.51399993896483 L 33.266998291015625 -82.53299713134764 L 33.257999420166016 -82.55200195312499 L 33.251686096191406 -82.56420898437499 L 33.24300003051758 -82.58100128173827 L 33.23500061035156 -82.59999847412108 L 33.22100067138672 -82.62699890136717 L 33.20199966430664 -82.66400146484374 L 33.191001892089844 -82.68499755859374 L 33.18949890136719 -82.68800354003905 L 33.1879997253418 -82.69100189208983 L 33.17100143432617 -82.71700286865233 L 33.16281509399414 -82.73081207275389 L 33.154998779296875 -82.74400329589842 L 33.14699935913086 -82.75499725341795 L 33.130001068115234 -82.78099822998045 L 33.121620178222656 -82.79252624511717 L 33.10599899291992 -82.81400299072264 L 33.099998474121094 -82.82299804687499 L 33.07500076293945 -82.85500335693358 L 33.051998138427734 -82.88300323486327 L 33.02899932861328 -82.91000366210936 L 33.005001068115234 -82.93699645996092 L 32.99800109863281 -82.94400024414061 L 32.98699951171875 -82.95500183105467 M -30.628999710083008 -82.10099792480467 L -30.628999710083008 -82.1127471923828 L -30.628999710083008 -82.11499786376952 L -30.6299991607666 -82.1220016479492 L -30.63800048828125 -82.1959991455078 L -30.64699935913086 -82.24999999999999 L -30.656999588012695 -82.29699707031249 L -30.665000915527344 -82.33200073242186 L -30.673999786376953 -82.36599731445311 L -30.68400001525879 -82.40100097656249 L -30.694028854370117 -82.43199920654295 L -30.69499969482422 -82.43499755859374 L -30.697999954223633 -82.44300079345702 L -30.711000442504883 -82.48100280761717 L -30.7189998626709 -82.50099945068358 L -30.719999313354492 -82.50340270996092 L -30.729000091552734 -82.52500152587889 L -30.74799919128418 -82.56900024414061 L -30.768999099731445 -82.61199951171874 L -30.791000366210938 -82.65499877929686 L -30.804000854492188 -82.68000030517577 L -30.808000564575195 -82.68699645996092 L -30.82699966430664 -82.71700286865233 L -30.84600067138672 -82.7480010986328 L -30.858667373657227 -82.76699829101561 L -30.865999221801758 -82.77799987792967 L -30.893999099731445 -82.81700134277342 L -30.92300033569336 -82.85500335693358 L -30.945999145507812 -82.88300323486327 L -30.9689998626709 -82.91000366210936 L -31.001300811767578 -82.94400024414061 L -31.006999969482422 -82.94999694824217 L -31.011999130249023 -82.95500183105467 L -31.04599952697754 -82.98999786376952 L -31.049999237060547 -82.99400329589842 L -31.078449249267578 -83.02077484130858 L -31.083999633789062 -83.02600097656249 L -31.08799934387207 -83.02899932861327 L -31.124000549316406 -83.05999755859374 L -31.156999588012695 -83.08599853515624 L -31.163999557495117 -83.09200286865233 L -31.171142578125 -83.09714508056639 L -31.214000701904297 -83.12799835205077 L -31.219999313354492 -83.13200378417967 L -31.231000900268555 -83.13999938964842 L -31.23200035095215 -83.14065551757811 L -31.260000228881836 -83.15899658203124 L -31.291000366210938 -83.17800140380858 L -31.32200050354004 -83.1959991455078 L -31.36400032043457 -83.21900177001952 L -31.406999588012695 -83.23999786376952 L -31.451000213623047 -83.26000213623045 L -31.4950008392334 -83.27799987792967 L -31.52899932861328 -83.29100036621092 L -31.562999725341797 -83.30300140380858 L -31.607999801635742 -83.31700134277342 L -31.655000686645508 -83.33000183105467 L -31.690000534057617 -83.33899688720702 L -31.743000030517578 -83.34999847412108 L -31.743999481201172 -83.3501739501953 L -31.760000228881836 -83.35299682617186 L -31.79599952697754 -83.35900115966795 L -31.82853889465332 -83.36315155029295 L -31.843000411987305 -83.36499786376952 L -31.89699935913086 -83.37000274658202 L -31.906999588012695 -83.37100219726561 L -31.97100067138672 -83.37400054931639 L -31.983999252319336 -83.37400054931639 L -32 -83.37376403808592 L -32.051998138427734 -83.3730010986328 L -32.066001892089844 -83.3730010986328 L -32.12223434448242 -83.3684616088867 L -32.12799835205078 -83.3679962158203 L -32.1349983215332 -83.3669967651367 L -32.19091796875 -83.36058044433592 L -32.19599914550781 -83.36000061035155 L -32.20199966430664 -83.35900115966795 L -32.20899963378906 -83.35800170898436 L -32.255001068115234 -83.34999847412108 L -32.25600051879883 -83.34980010986327 L -32.27000045776367 -83.3470001220703 L -32.277000427246094 -83.34500122070311 L -32.35200119018555 -83.32700347900389 L -32.361000061035156 -83.32499694824217 L -32.42499923706055 -83.30599975585936 L -32.43899917602539 -83.30200195312499 L -32.441001892089844 -83.30124664306639 L -32.446998596191406 -83.2990036010742 L -32.47328186035156 -83.28891754150389 L -32.52000045776367 -83.27100372314452 L -32.53900146484375 -83.26300048828124 L -32.569000244140625 -83.24999999999999 L -32.61800003051758 -83.22699737548827 L -32.664588928222656 -83.19999694824217 L -32.70600128173828 -83.17600250244139 L -32.7140007019043 -83.17099761962889 L -32.72100067138672 -83.16699981689452 L -32.72600173950195 -83.16400146484374 L -32.73500061035156 -83.15799713134764 L -32.742000579833984 -83.15200042724608 L -32.74700164794922 -83.1480026245117 L -32.74848175048828 -83.14644622802733 L -32.766998291015625 -83.12699890136717 L -32.768001556396484 -83.12599945068358 L -33.069000244140625 -82.85500335693358 L -33.08599853515625 -82.83999633789061 L -33.22800064086914 -82.59799957275389 L -33.257999420166016 -82.55100250244139 L -33.345001220703125 -82.2480010986328 L -33.3592529296875 -82.17495727539061 L -33.361000061035156 -82.16600036621092 L -33.37099838256836 -81.98699951171874 L -33.37200164794922 -81.9710006713867 L -33.366676330566406 -81.9199981689453 L -33.35300064086914 -81.78900146484374 L -33.290000915527344 -81.56400299072264 L -33.277000427246094 -81.49900054931639 L -33.25699996948242 -81.45999908447264 L -33.23400115966797 -81.4189987182617 L -33.09299850463867 -81.1699981689453 L -33.05400085449219 -81.12699890136717 L -32.768001556396484 -80.89979553222655 L -32.766998291015625 -80.8990020751953 L -32.76324462890625 -80.89600372314452 L -32.62799835205078 -80.78800201416014 L -32.565773010253906 -80.75449371337889 L -32.5629997253418 -80.75299835205077 L -32.542999267578125 -80.7470016479492 L -32.25600051879883 -80.65256500244139 L -32.233001708984375 -80.64499664306639 L -32.20399856567383 -80.64199829101561 L -32.13825988769531 -80.63417053222655 L -32.119998931884766 -80.63200378417967 L -32.077606201171875 -80.6273956298828 L -32.07400131225586 -80.62699890136717 L -32.06800079345703 -80.62699890136717 L -32.01900100708008 -80.62499999999999 L -32.00600051879883 -80.62400054931639 L -31.975000381469727 -80.62400054931639 L -31.951000213623047 -80.62499999999999 L -31.878999710083008 -80.62899780273436 L -31.843000411987305 -80.63300323486327 L -31.808000564575195 -80.63700103759764 L -31.760000228881836 -80.64499664306639 L -31.743999481201172 -80.64876556396483 L -31.743000030517578 -80.6490020751953 L -31.725000381469727 -80.65200042724608 L -31.67799949645996 -80.66200256347655 L -31.64299964904785 -80.67099761962889 L -31.6200008392334 -80.67700195312499 L -31.597000122070312 -80.68399810791014 L -31.562999725341797 -80.6949996948242 L -31.52899932861328 -80.70700073242186 L -31.4950008392334 -80.72000122070311 L -31.488000869750977 -80.72350311279295 L -31.48699951171875 -80.72399902343749 L -31.451000213623047 -80.73799896240233 L -31.417999267578125 -80.75299835205077 L -31.38599967956543 -80.7689971923828 L -31.343000411987305 -80.79100036621092 L -31.312000274658203 -80.80799865722655 L -31.291000366210938 -80.8199996948242 L -31.260000228881836 -80.83899688720702 L -31.23200035095215 -80.85830688476561 L -31.231000900268555 -80.85900115966795 L -31.229999542236328 -80.85900115966795 L -31.209999084472656 -80.87348175048827 L -31.178905487060547 -80.89600372314452 L -31.172000885009766 -80.90100097656249 L -31.163999557495117 -80.90699768066405 L -31.14699935913086 -80.9199981689453 L -31.145000457763672 -80.92199707031249 L -31.142000198364258 -80.9240036010742 L -31.13800048828125 -80.92800140380858 L -31.106000900268555 -80.95300292968749 L -31.06100082397461 -80.9929962158203 L -31.03499984741211 -81.0179977416992 L -30.9689998626709 -81.08799743652342 L -30.937999725341797 -81.12400054931639 L -30.92300033569336 -81.1429977416992 L -30.91925048828125 -81.14775085449217 L -30.915895462036133 -81.15200042724608 L -30.908000946044922 -81.16200256347655 L -30.908000946044922 -81.16300201416014 L -30.8799991607666 -81.20099639892577 L -30.87700080871582 -81.20500183105467 L -30.864334106445312 -81.22299957275389 L -30.857999801635742 -81.23200225830077 L -30.85300064086914 -81.23899841308592 L -30.851667404174805 -81.24099731445311 L -30.85099983215332 -81.2419967651367 L -30.834999084472656 -81.26699829101561 L -30.83300018310547 -81.26999664306639 L -30.81999969482422 -81.29100036621092 L -30.802000045776367 -81.32199859619139 L -30.77899932861328 -81.36399841308592 L -30.777000427246094 -81.36900329589842 L -30.759000778198242 -81.40599822998045 L -30.75807762145996 -81.40799713134764 L -30.753000259399414 -81.4189987182617 L -30.738000869750977 -81.45099639892577 L -30.7362003326416 -81.4553985595703 L -30.719999313354492 -81.49500274658202 L -30.7189998626709 -81.4980010986328 L -30.71150016784668 -81.51750183105467 L -30.708999633789062 -81.5240020751953 L -30.707000732421875 -81.53099822998045 L -30.694000244140625 -81.5699996948242 L -30.691999435424805 -81.57499694824217 L -30.69099998474121 -81.57800292968749 L -30.69099998474121 -81.58000183105467 L -30.690000534057617 -81.58300018310545 L -30.689332962036133 -81.58533477783202 L -30.687999725341797 -81.58999633789061 L -30.68600082397461 -81.59999847412108 L -30.684999465942383 -81.60700225830077 L -30.683000564575195 -81.6169967651367 L -30.683000564575195 -81.62030792236327 L -30.683000564575195 -81.62400054931639 L -30.679000854492188 -81.6439971923828 L -30.666000366210938 -81.7210006713867 L -30.629989624023438 -81.9199981689453 L -30.628679275512695 -81.92725372314452 L -30.628000259399414 -81.93099975585936 L -30.625999450683594 -81.9459991455078 L -30.625 -81.95300292968749 L -30.625 -81.95999908447264 L -30.628999710083008 -82.10099792480467 M 9.274999618530273 76.71199798583983 L 9.27144718170166 76.70560455322264 L 9.270000457763672 76.70300292968749 L 9.265000343322754 76.6959991455078 L 9.215999603271484 76.6230010986328 L 9.199000358581543 76.59899902343749 L 9.194999694824219 76.59300231933592 L 9.155799865722656 76.5439987182617 L 9.151000022888184 76.53800201416014 L 9.145999908447266 76.53199768066405 L 9.145000457763672 76.52999877929686 L 9.13700008392334 76.52100372314452 L 9.135210990905762 76.51905059814452 L 9.102999687194824 76.48400115966795 L 9.071999549865723 76.45099639892577 L 9.039999961853027 76.41799926757811 L 9.015000343322754 76.39499664306639 L 9.006999969482422 76.38800048828124 L 8.973999977111816 76.35800170898436 L 8.968000411987305 76.35299682617186 L 8.960000038146973 76.34660339355467 L 8.947999954223633 76.33699798583983 L 8.9399995803833 76.33000183105467 L 8.92199993133545 76.31700134277342 L 8.904999732971191 76.30300140380858 L 8.895999908447266 76.29599761962889 L 8.884952545166016 76.28800201416014 L 8.866999626159668 76.27500152587889 L 8.840999603271484 76.25700378417967 L 8.833999633789062 76.25199890136717 L 8.831095695495605 76.25014495849608 L 8.77299976348877 76.21299743652342 L 8.73900032043457 76.19400024414061 L 8.704000473022461 76.1750030517578 L 8.692999839782715 76.1689987182617 L 8.657999992370605 76.15100097656249 L 8.621999740600586 76.13400268554686 L 8.586000442504883 76.1179962158203 L 8.579999923706055 76.11550140380858 L 8.562000274658203 76.10800170898436 L 8.524999618530273 76.09400177001952 L 8.48799991607666 76.08100128173827 L 8.46399974822998 76.07199859619139 L 8.454999923706055 76.0699996948242 L 8.447999954223633 76.06790924072264 L 8.387999534606934 76.0500030517578 L 8.366000175476074 76.0449981689453 L 8.361000061035156 76.0439987182617 L 8.33899974822998 76.03800201416014 L 8.333000183105469 76.03700256347655 L 8.314000129699707 76.03299713134764 L 8.312000274658203 76.03199768066405 L 8.260000228881836 76.02200317382811 L 8.222000122070312 76.01599884033202 L 8.192000389099121 76.01200103759764 L 8.182999610900879 76.01000213623045 L 8.16100025177002 76.00800323486327 L 8.154999732971191 76.00700378417967 L 8.108750343322754 76.0032501220703 L 8.081000328063965 76.00099945068358 L 8.072999954223633 76.00099945068358 L 8.038999557495117 75.99999999999999 L 8.032999992370605 75.99999999999999 L 7.988999843597412 75.99900054931639 L 7.985000133514404 75.99900054931639 L 7.940000057220459 75.99999999999999 L 7.935999870300293 75.99999999999999 L 7.934999942779541 75.99999999999999 L 7.894999980926514 76.00299835205077 L 7.855999946594238 76.00599670410155 L 7.816999912261963 76.01000213623045 L 7.7779998779296875 76.01599884033202 L 7.739999771118164 76.02200317382811 L 7.701000213623047 76.02899932861327 L 7.688399791717529 76.03199768066405 L 7.679999828338623 76.03399658203124 L 7.663000106811523 76.03700256347655 L 7.624000072479248 76.04699707031249 L 7.573999881744385 76.06099700927733 L 7.547176361083984 76.06876373291014 L 7.539166450500488 76.07108306884764 L 7.535999774932861 76.07199859619139 L 7.52400016784668 76.07649993896483 L 7.51200008392334 76.08100128173827 L 7.488999843597412 76.08899688720702 L 7.479666709899902 76.09233093261717 L 7.474999904632568 76.09400177001952 L 7.433000087738037 76.11100006103514 L 7.427999973297119 76.11299896240233 L 7.426000118255615 76.11299896240233 L 7.423999786376953 76.11399841308592 L 7.419000148773193 76.11599731445311 L 7.377999782562256 76.13400268554686 L 7.3420000076293945 76.15100097656249 L 7.307000160217285 76.1689987182617 L 7.261000156402588 76.19400024414061 L 7.2270002365112305 76.21299743652342 L 7.168000221252441 76.25099945068358 L 7.160999774932861 76.25499725341795 L 7.132999897003174 76.27500152587889 L 7.114999771118164 76.28800201416014 L 7.0970001220703125 76.30100250244139 L 7.077000141143799 76.31700134277342 L 7.056000232696533 76.33300018310545 L 7.026000022888184 76.35800170898436 L 6.986999988555908 76.3929977416992 L 6.940000057220459 76.44000244140624 L 6.936835765838623 76.44237518310545 L 6.935999870300293 76.44300079345702 L 6.926000118255615 76.45300292968749 L 6.920000076293945 76.46099853515624 L 6.826000213623047 76.56500244140624 L 6.808000087738037 76.59100341796874 L 6.754000186920166 76.66699981689452 L 6.737559795379639 76.68983459472655 L 6.736000061035156 76.69200134277342 L 6.736000061035156 76.69300079345702 L 6.732584476470947 76.69993591308592 L 6.683290481567383 76.8000030517578 L 6.636000156402588 76.89600372314452 L 6.616055011749268 76.93873596191405 L 6.614999771118164 76.94100189208983 L 6.605999946594238 76.98400115966795 L 6.539999961853027 77.2990036010742 L 6.501999855041504 77.47899627685545 L 6.501999855041504 77.5240020751953 L 6.502999782562256 77.58899688720702 L 6.504000186920166 77.60399627685545 L 6.506475925445557 77.63783264160155 L 6.506999969482422 77.64499664306639 L 6.51200008392334 77.68900299072264 L 6.519000053405762 77.72299957275389 L 6.52323055267334 77.75177001953124 L 6.52400016784668 77.75700378417967 L 6.5279998779296875 77.77799987792967 L 6.533999919891357 77.81099700927733 L 6.536600112915039 77.82399749755858 L 6.538000106811523 77.83100128173827 L 6.554999828338623 77.8990020751953 L 6.565000057220459 77.93099975585936 L 6.571000099182129 77.95300292968749 L 6.580625057220459 77.98100280761717 L 6.581999778747559 77.98500061035155 L 6.5970001220703125 78.02700042724608 L 6.605999946594238 78.05400085449217 L 6.610333442687988 78.06433105468749 L 6.61899995803833 78.08499908447264 L 6.635000228881836 78.12100219726561 L 6.656000137329102 78.16390991210936 L 6.6579999923706055 78.16799926757811 L 6.682000160217285 78.21499633789061 L 6.708000183105469 78.26000213623045 L 6.744999885559082 78.3209991455078 L 6.745999813079834 78.3209991455078 L 6.747000217437744 78.32299804687499 L 6.751999855041504 78.33100128173827 L 6.755333423614502 78.33599853515624 L 6.78000020980835 78.3730010986328 L 6.796999931335449 78.39499664306639 L 6.800000190734863 78.40000152587889 L 6.820176601409912 78.42594146728514 L 6.821000099182129 78.42700195312499 L 6.826000213623047 78.43299865722655 L 6.859000205993652 78.47299957275389 L 6.894000053405762 78.51200103759764 L 6.929999828338623 78.5500030517578 L 6.958000183105469 78.57800292968749 L 6.973037242889404 78.59200286865233 L 6.986999988555908 78.60500335693358 L 7.026000022888184 78.63999938964842 L 7.0320000648498535 78.64499664306639 L 7.056000232696533 78.66500091552733 L 7.077000141143799 78.68099975585936 L 7.0970001220703125 78.69699859619139 L 7.160999774932861 78.7429962158203 L 7.168000221252441 78.7480010986328 L 7.2270002365112305 78.78500366210936 L 7.261000156402588 78.80400085449217 L 7.307000160217285 78.82900238037108 L 7.318999767303467 78.83499908447264 L 7.343999862670898 78.84799957275389 L 7.354000091552734 78.85299682617186 L 7.389999866485596 78.86900329589842 L 7.414000034332275 78.87999725341795 L 7.426000118255615 78.88500213623045 L 7.438000202178955 78.88999938964842 L 7.474999904632568 78.90399932861327 L 7.51200008392334 78.91699981689452 L 7.532800197601318 78.92479705810545 L 7.535999774932861 78.92600250244139 L 7.573999881744385 78.93699645996092 L 7.580999851226807 78.93900299072264 L 7.582941055297852 78.93959045410155 L 7.613999843597412 78.94899749755858 L 7.6168718338012695 78.94940948486327 L 7.618000030517578 78.94956970214842 L 7.620999813079834 78.94999694824217 L 7.635000228881836 78.95400238037108 L 7.645999908447266 78.95700073242186 L 7.6570000648498535 78.95999908447264 L 7.663000106811523 78.96099853515624 L 7.679999828338623 78.96499633789061 L 7.701000213623047 78.96900177001952 L 7.739999771118164 78.97599792480467 L 7.743333339691162 78.97666931152342 L 7.764999866485596 78.98100280761717 L 7.7729997634887695 78.98200225830077 L 7.790999889373779 78.98400115966795 L 7.816999912261963 78.98799896240233 L 7.855999946594238 78.9919967651367 L 7.921000003814697 78.9970016479492 L 7.935999870300293 78.99755859374999 L 7.947999954223633 78.9980010986328 L 7.973999977111816 78.99900054931639 L 8 78.99900054931639 L 8.038999557495117 78.9980010986328 L 8.045999526977539 78.9980010986328 L 8.081000328063965 78.9970016479492 L 8.092000007629395 78.99600219726561 L 8.1537504196167 78.99124908447264 L 8.156999588012695 78.99099731445311 L 8.182999610900879 78.98799896240233 L 8.192000389099121 78.98699951171874 L 8.220000267028809 78.98200225830077 L 8.223999977111816 78.98200225830077 L 8.255999565124512 78.97699737548827 L 8.260000228881836 78.97599792480467 L 8.293000221252441 78.97000122070311 L 8.300999641418457 78.96900177001952 L 8.303999900817871 78.96800231933592 L 8.324999809265137 78.96299743652342 L 8.347000122070312 78.95800018310545 L 8.347999572753906 78.95800018310545 L 8.387999534606934 78.94799804687499 L 8.444999694824219 78.93199920654295 L 8.447999954223633 78.93109893798827 L 8.454999923706055 78.92900085449217 L 8.46399974822998 78.92600250244139 L 8.48799991607666 78.91699981689452 L 8.524999618530273 78.90399932861327 L 8.562000274658203 78.88999938964842 L 8.579999923706055 78.8824996948242 L 8.586000442504883 78.87999725341795 L 8.609999656677246 78.86900329589842 L 8.645999908447266 78.85299682617186 L 8.651143074035645 78.85014343261717 L 8.654999732971191 78.84799957275389 L 8.692999839782715 78.82900238037108 L 8.704000473022461 78.82299804687499 L 8.73900032043457 78.80400085449217 L 8.77299976348877 78.78500366210936 L 8.83899974822998 78.7429962158203 L 8.885000228881836 78.70999908447264 L 8.902999877929688 78.69699859619139 L 8.92300033569336 78.68099975585936 L 8.944000244140625 78.66500091552733 L 8.968000411987305 78.64499664306639 L 8.973999977111816 78.63999938964842 L 9.012999534606934 78.60500335693358 L 9.026963233947754 78.59200286865233 L 9.041999816894531 78.57800292968749 L 9.069999694824219 78.5500030517578 L 9.105999946594238 78.51200103759764 L 9.140999794006348 78.47299957275389 L 9.173999786376953 78.43299865722655 L 9.197999954223633 78.40200042724608 L 9.215999603271484 78.37699890136717 L 9.244000434875488 78.33799743652342 L 9.245200157165527 78.33599853515624 L 9.253000259399414 78.32299804687499 L 9.28600025177002 78.27200317382811 L 9.298999786376953 78.24900054931639 L 9.317999839782715 78.21499633789061 L 9.319999694824219 78.20999908447264 L 9.34000015258789 78.17199707031249 L 9.340999603271484 78.1699981689453 L 9.3412504196167 78.16962432861327 L 9.343000411987305 78.16699981689452 L 9.345714569091797 78.16114044189452 L 9.349333763122559 78.15333557128905 L 9.362000465393066 78.12599945068358 L 9.364999771118164 78.12100219726561 L 9.380999565124512 78.08499908447264 L 9.38308334350586 78.08000183105467 L 9.392666816711426 78.05699920654295 L 9.395999908447266 78.0490036010742 L 9.413999557495117 77.99999999999999 L 9.416000366210938 77.99500274658202 L 9.417272567749023 77.99108886718749 L 9.430000305175781 77.95200347900389 L 9.442999839782715 77.90599822998045 L 9.444999694824219 77.90000152587889 L 9.444999694824219 77.8980026245117 L 9.458000183105469 77.84899902343749 L 9.463920593261719 77.82399749755858 L 9.467000007629395 77.81099700927733 L 9.469400405883789 77.80059814453124 L 9.470000267028809 77.79799652099608 L 9.470999717712402 77.79299926757811 L 9.477999687194824 77.74900054931639 L 9.479000091552734 77.74500274658202 L 9.486000061035156 77.70099639892577 L 9.487000465393066 77.6949996948242 L 9.493000030517578 77.6429977416992 L 9.496999740600586 77.59100341796874 L 9.49899959564209 77.53800201416014 L 9.5 77.49900054931639 L 9.49899959564209 77.45999908447264 L 9.496999740600586 77.40699768066405 L 9.493000030517578 77.35500335693358 L 9.488038063049316 77.31199645996092 L 9.487000465393066 77.30300140380858 L 9.486000061035156 77.2990036010742 L 9.479999542236328 77.25900268554686 L 9.479000091552734 77.25299835205077 L 9.479000091552734 77.25233459472655 L 9.479000091552734 77.24999999999999 L 9.478650093078613 77.24999999999999 L 9.478500366210938 77.24999999999999 L 9.477999687194824 77.24999999999999 L 9.47700023651123 77.24400329589842 L 9.470000267028809 77.19999694824217 L 9.469200134277344 77.1971969604492 L 9.468000411987305 77.19300079345702 L 9.45300006866455 77.12799835205077 L 9.451000213623047 77.12100219726561 L 9.433272361755371 77.05599975585936 L 9.432999610900879 77.05500030517577 L 9.430999755859375 77.04799652099608 L 9.404999732971191 76.97399902343749 L 9.399999618530273 76.96299743652342 L 9.370845794677734 76.89193725585936 L 9.368000030517578 76.88500213623045 L 9.36299991607666 76.87599945068358 L 9.331000328063965 76.81099700927733 L 9.32800006866455 76.80400085449217 L 9.326651573181152 76.80163574218749 L 9.32572078704834 76.8000030517578 L 9.279000282287598 76.71800231933592 L 9.274999618530273 76.71199798583983 M -8.138999938964844 76.0439987182617 L -8.151374816894531 76.04062652587889 L -8.16100025177002 76.03800201416014 L -8.185999870300293 76.03299713134764 L -8.187999725341797 76.03199768066405 L -8.192000389099121 76.03099822998045 L -8.239999771118164 76.02200317382811 L -8.277999877929688 76.01599884033202 L -8.317000389099121 76.01000213623045 L -8.343000411987305 76.00700378417967 L -8.420000076293945 76.00107574462889 L -8.420999526977539 76.00099945068358 L -8.447999954223633 75.99999999999999 L -8.473999977111816 75.99900054931639 L -8.524999618530273 75.99900054931639 L -8.526000022888184 75.99900054931639 L -8.552000045776367 75.99999999999999 L -8.579000473022461 76.00099945068358 L -8.656999588012695 76.00700378417967 L -8.682999610900879 76.01000213623045 L -8.704000473022461 76.01300048828124 L -8.722000122070312 76.01599884033202 L -8.760000228881836 76.02200317382811 L -8.812000274658203 76.03199768066405 L -8.817999839782715 76.03299713134764 L -8.836999893188477 76.03700256347655 L -8.86299991607666 76.0439987182617 L -8.887999534606934 76.0500030517578 L -8.924099922180176 76.06044769287108 L -8.96399974822998 76.07199859619139 L -8.98799991607666 76.08100128173827 L -9.024999618530273 76.09400177001952 L -9.06781005859375 76.11060333251952 L -9.074000358581543 76.11299896240233 L -9.07800006866455 76.11499786376952 L -9.121999740600586 76.13400268554686 L -9.168999671936035 76.15699768066405 L -9.204000473022461 76.1750030517578 L -9.215999603271484 76.18199920654295 L -9.23900032043457 76.19400024414061 L -9.27299976348877 76.21299743652342 L -9.33899974822998 76.25499725341795 L -9.366999626159668 76.27500152587889 L -9.385000228881836 76.28900146484374 L -9.395000457763672 76.29566955566405 L -9.402999877929688 76.30100250244139 L -9.42300033569336 76.31700134277342 L -9.444000244140625 76.33300018310545 L -9.473999977111816 76.35800170898436 L -9.47585678100586 76.35966491699217 L -9.512999534606934 76.3929977416992 L -9.586000442504883 76.46600341796874 L -9.62600040435791 76.52200317382811 L -9.793999671936035 76.7480010986328 L -9.801287651062012 76.76740264892577 L -9.813531875610352 76.8000030517578 L -9.947999954223633 77.15799713134764 L -9.967000007629395 77.21099853515624 L -9.979999542236328 77.2990036010742 L -9.982139587402344 77.31199645996092 L -9.992606163024902 77.37560272216795 L -9.993000030517578 77.37799835205077 L -9.994000434875488 77.42299652099608 L -9.994999885559082 77.45700073242186 L -9.994000434875488 77.48999786376952 L -9.993000030517578 77.5240020751953 L -9.996999740600586 77.58200073242186 L -9.993000030517578 77.63800048828124 L -9.991999626159668 77.65100097656249 L -9.989999771118164 77.6699981689453 L -9.987000465393066 77.6949996948242 L -9.979000091552734 77.7470016479492 L -9.970000267028809 77.79799652099608 L -9.967000007629395 77.81099700927733 L -9.963920593261719 77.82399749755858 L -9.958000183105469 77.84899902343749 L -9.944999694824219 77.90000152587889 L -9.930999755859375 77.94999694824217 L -9.913999557495117 77.99999999999999 L -9.895999908447266 78.0490036010742 L -9.88308334350586 78.08000183105467 L -9.880999565124512 78.08499908447264 L -9.857000350952148 78.13899993896483 L -9.836999893188477 78.18000030517577 L -9.817999839782715 78.21499633789061 L -9.809000015258789 78.23200225830077 L -9.807768821716309 78.23384857177733 L -9.800999641418457 78.24400329589842 L -9.79800033569336 78.25099945068358 L -9.786999702453613 78.26999664306639 L -9.782999992370605 78.27700042724608 L -9.782530784606934 78.27771759033202 L -9.753000259399414 78.32299804687499 L -9.745200157165527 78.33599853515624 L -9.744000434875488 78.33799743652342 L -9.727999687194824 78.36100006103514 L -9.710000038146973 78.38500213623045 L -9.697999954223633 78.40200042724608 L -9.685999870300293 78.41699981689452 L -9.682000160217285 78.42199707031249 L -9.666000366210938 78.44300079345702 L -9.631999969482422 78.48300170898436 L -9.605999946594238 78.51200103759764 L -9.569999694824219 78.5500030517578 L -9.541999816894531 78.57800292968749 L -9.527222633361816 78.59200286865233 L -9.503999710083008 78.61399841308592 L -9.444000244140625 78.66500091552733 L -9.42300033569336 78.68099975585936 L -9.402999877929688 78.69699859619139 L -9.385344505310059 78.70968627929686 L -9.33899974822998 78.7429962158203 L -9.276055335998535 78.78305816650389 L -9.27299976348877 78.78500366210936 L -9.23900032043457 78.80400085449217 L -9.215999603271484 78.81700134277342 L -9.204000473022461 78.82299804687499 L -9.182999610900879 78.83499908447264 L -9.180999755859375 78.83599853515624 L -9.157999992370605 78.8470001220703 L -9.155799865722656 78.84799957275389 L -9.092000007629395 78.87699890136717 L -9.086000442504883 78.87999725341795 L -9.062000274658203 78.88999938964842 L -9.057999610900879 78.89099884033202 L -9.027000427246094 78.90399932861327 L -9.02299976348877 78.90499877929686 L -8.991000175476074 78.91600036621092 L -8.98799991607666 78.91699981689452 L -8.987000465393066 78.91737365722655 L -8.96399974822998 78.92600250244139 L -8.960000038146973 78.92711639404295 L -8.939000129699707 78.93299865722655 L -8.913000106811523 78.94100189208983 L -8.887999534606934 78.94799804687499 L -8.87553882598877 78.95076751708983 L -8.869999885559082 78.95200347900389 L -8.86299991607666 78.95400238037108 L -8.845000267028809 78.95939636230467 L -8.843000411987305 78.95999908447264 L -8.836999893188477 78.96099853515624 L -8.812000274658203 78.96600341796874 L -8.774857521057129 78.97314453124999 L -8.760000228881836 78.97599792480467 L -8.734999656677246 78.98100280761717 L -8.732500076293945 78.98128509521483 L -8.708999633789062 78.98400115966795 L -8.704000473022461 78.98500061035155 L -8.682999610900879 78.98799896240233 L -8.656999588012695 78.99099731445311 L -8.579999923706055 78.9970016479492 L -8.579000473022461 78.9970016479492 L -8.552000045776367 78.9980010986328 L -8.526000022888184 78.99900054931639 L -8.473999977111816 78.99900054931639 L -8.447999954223633 78.9980010986328 L -8.420999526977539 78.9970016479492 L -8.420000076293945 78.9970016479492 L -8.41909408569336 78.99693298339842 L -8.343000411987305 78.99099731445311 L -8.317000389099121 78.98799896240233 L -8.291000366210938 78.98400115966795 L -8.276000022888184 78.98274993896483 L -8.267000198364258 78.98200225830077 L -8.265000343322754 78.98100280761717 L -8.239999771118164 78.97599792480467 L -8.192000389099121 78.96700286865233 L -8.187999725341797 78.96600341796874 L -8.182000160217285 78.96499633789061 L -8.169333457946777 78.9623336791992 L -8.163000106811523 78.96099853515624 L -8.149999618530273 78.95749664306639 L -8.13700008392334 78.95400238037108 L -8.130000114440918 78.95200347900389 L -8.127545356750488 78.95145416259764 L -8.112000465393066 78.94799804687499 L -8.107999801635742 78.94699859619139 L -8.076000213623047 78.93800354003905 L -8.071999549865723 78.93699645996092 L -8.064000129699707 78.93457794189452 L -8.038999557495117 78.92700195312499 L -8.036999702453613 78.92600250244139 L -8.03600025177002 78.92600250244139 L -8.034285545349121 78.92556762695311 L -8.032666206359863 78.92516326904295 L -8.031999588012695 78.9250030517578 L -8.00100040435791 78.91400146484374 L -7.997000217437744 78.91300201416014 L -7.994111061096191 78.9115524291992 L -7.993000030517578 78.91100311279295 L -7.965000152587891 78.90100097656249 L -7.961999893188477 78.8990020751953 L -7.939000129699707 78.89099884033202 L -7.938000202178955 78.88999938964842 L -7.935999870300293 78.88916778564452 L -7.914000034332275 78.87999725341795 L -7.844182014465332 78.84799957275389 L -7.8420000076293945 78.8470001220703 L -7.818999767303467 78.83599853515624 L -7.816999912261963 78.83499908447264 L -7.796000003814697 78.82299804687499 L -7.794105052947998 78.82236480712889 L -7.793000221252441 78.82199859619139 L -7.763999938964844 78.80599975585936 L -7.763461589813232 78.80545806884764 L -7.763000011444092 78.80500030517577 L -7.758999824523926 78.80300140380858 L -7.732148170471191 78.78818511962889 L -7.730783939361572 78.7874298095703 L -7.730000019073486 78.78700256347655 L -7.7270002365112305 78.78500366210936 L -7.7129998207092285 78.77600097656249 L -7.679999828338623 78.75499725341795 L -7.660999774932861 78.7429962158203 L -7.6579999923706055 78.74099731445311 L -7.630000114440918 78.7210006713867 L -7.626999855041504 78.71900177001952 L -7.622499942779541 78.71566772460936 L -7.599999904632568 78.69899749755858 L -7.5970001220703125 78.69699859619139 L -7.577000141143799 78.68099975585936 L -7.556000232696533 78.66500091552733 L -7.526000022888184 78.63999938964842 L -7.495999813079834 78.61399841308592 L -7.472743034362793 78.59200286865233 L -7.459000110626221 78.57900238037108 L -7.454999923706055 78.57599639892577 L -7.431000232696533 78.55200195312499 L -7.428999900817871 78.5490036010742 L -7.3979997634887695 78.51599884033202 L -7.394000053405762 78.51200103759764 L -7.386727333068848 78.50399780273436 L -7.363999843597412 78.47899627685545 L -7.360000133514404 78.47499847412108 L -7.357999801635742 78.4720001220703 L -7.354000091552734 78.46800231933592 L -7.326000213623047 78.43299865722655 L -7.302000045776367 78.40200042724608 L -7.25600004196167 78.33799743652342 L -7.254666805267334 78.33599853515624 L -7.245999813079834 78.32299804687499 L -7.214000225067139 78.27200317382811 L -7.201000213623047 78.24900054931639 L -7.182000160217285 78.21499633789061 L -7.168000221252441 78.18900299072264 L -7.163000106811523 78.18000030517577 L -7.1519999504089355 78.15699768066405 L -7.135000228881836 78.12100219726561 L -7.11899995803833 78.08499908447264 L -7.104000091552734 78.0490036010742 L -7.085999965667725 77.99999999999999 L -7.072999954223633 77.96299743652342 L -7.065999984741211 77.93800354003905 L -7.054999828338623 77.90000152587889 L -7.053999900817871 77.89600372314452 L -7.053400039672852 77.8929977416992 L -7.039599895477295 77.82399749755858 L -7.019999980926514 77.72599792480467 L -7.019999980926514 77.72299957275389 L -7.019999980926514 77.7220001220703 L -7.01800012588501 77.71499633789061 L -7.017000198364258 77.71099853515624 L -7.015999794006348 77.70700073242186 L -7.014999866485596 77.70200347900389 L -7.013999938964844 77.69799804687499 L -7.013999938964844 77.69699859619139 L -7.013999938964844 77.6959991455078 L -7.013999938964844 77.69300079345702 L -7.013000011444092 77.68499755859374 L -7.01200008392334 77.67600250244139 L -7.01200008392334 77.65299987792967 L -7.013000011444092 77.6439971923828 L -7.013999938964844 77.63558197021483 L -7.019999980926514 77.58509826660155 L -7.052454948425293 77.31199645996092 L -7.053999900817871 77.2990036010742 L -7.084012031555176 77.05599975585936 L -7.085000038146973 77.04799652099608 L -7.085999965667725 77.04000091552733 L -7.085999965667725 77.03990173339842 L -7.085999965667725 77.03500366210936 L -7.086999893188477 77.03099822998045 L -7.0879998207092285 77.02500152587889 L -7.090000152587891 77.0179977416992 L -7.091000080108643 77.01300048828124 L -7.0920000076293945 77.01100158691405 L -7.0929999351501465 77.00499725341795 L -7.093999862670898 77.00199890136717 L -7.094666481018066 77.00033569335936 L -7.0960001945495605 76.9970016479492 L -7.0970001220703125 76.99400329589842 L -7.0980000495910645 76.9919967651367 L -7.098999977111816 76.98999786376952 L -7.10099983215332 76.98449707031249 L -7.103000164031982 76.97899627685545 L -7.106420993804932 76.97094726562499 L -7.124666690826416 76.92800140380858 L -7.168000221252441 76.82599639892577 L -7.178655624389648 76.8000030517578 L -7.192999839782715 76.76499938964842 L -7.204999923706055 76.7429962158203 L -7.255000114440918 76.66200256347655 L -7.269999980926514 76.64099884033202 L -7.303999900817871 76.59300231933592 L -7.306153774261475 76.5903854370117 L -7.317999839782715 76.57599639892577 L -7.3429999351501465 76.5449981689453 L -7.3438334465026855 76.5439987182617 L -7.368000030517578 76.51499938964842 L -7.394000053405762 76.48600006103514 L -7.429999828338623 76.44799804687499 L -7.458000183105469 76.4199981689453 L -7.486999988555908 76.3929977416992 L -7.526000022888184 76.35800170898436 L -7.5320000648498535 76.35299682617186 L -7.556000232696533 76.33300018310545 L -7.577000141143799 76.31700134277342 L -7.5886664390563965 76.30766296386717 L -7.5970001220703125 76.30100250244139 L -7.613999843597412 76.28900146484374 L -7.615356922149658 76.28800201416014 L -7.632999897003174 76.27500152587889 L -7.660999774932861 76.25499725341795 L -7.679999828338623 76.24291229248045 L -7.7270002365112305 76.21299743652342 L -7.761000156402588 76.19400024414061 L -7.807000160217285 76.1689987182617 L -7.8420000076293945 76.15100097656249 L -7.877999782562256 76.13400268554686 L -7.914000034332275 76.1179962158203 L -7.935999870300293 76.10900115966795 L -7.937333106994629 76.1083297729492 L -7.938000202178955 76.10800170898436 L -7.961999893188477 76.09899902343749 L -7.999000072479248 76.08499908447264 L -8.034843444824219 76.07240295410155 L -8.03600025177002 76.07199859619139 L -8.112000465393066 76.0500030517578 L -8.133000373840332 76.0449981689453 L -8.138999938964844 76.0439987182617 z" fill="none" stroke="rgb(255,0,0)" stroke-width="0.001mm" />
</svg>